<?xml version="1.0" encoding="UTF-8"?>
<svg width="492px" height="410px" viewBox="0 0 492 410" version="1.1" xmlns="http://www.w3.org/2000/svg" xmlns:xlink="http://www.w3.org/1999/xlink">
    <title>arrow-right-full</title>
    <g id="Page-1" stroke="none" stroke-width="1" fill="none" fill-rule="evenodd">
        <g id="arrow-right-full" fill="#383838" fill-rule="nonzero">
            <path d="M484.1,185.5 L306.5,7.9 C301.4,2.8 294.7,0 287.5,0 C280.3,0 273.5,2.8 268.5,7.9 L252.2,24 C247.1,29.1 244.3,35.8 244.3,43 C244.3,50.2 247.1,57.2 252.2,62.3 L355.9,166.2 L26.6,166.2 C11.7,166.2 0,177.8 0,192.7 L0,215.5 C0,230.4 11.7,243.1 26.6,243.1 L357.1,243.1 L252.2,347.6 C247.1,352.7 244.3,359.3 244.3,366.5 C244.3,373.7 247.1,380.4 252.2,385.4 L268.3,401.5 C273.4,406.6 280.1,409.3 287.3,409.3 C294.5,409.3 301.3,406.5 306.3,401.4 L484,223.7 C489.1,218.6 491.902589,211.8 491.902589,204.6 C492,197.4 489.2,190.6 484.1,185.5" id="Path"></path>
        </g>
    </g>
</svg>