<svg id="Layer_4" fill="#FFF" enable-background="new 0 0 64 64" height="512" viewBox="0 0 64 64" width="512" xmlns="http://www.w3.org/2000/svg"><g><g id="LWPOLYLINE_2_"><g><path d="m12.8 37.8c-.139 0-.278-.028-.41-.088-.359-.161-.59-.519-.59-.912v-6.2h-1.4c-1.875 0-3.4-1.526-3.4-3.4v-16.8c0-1.875 1.525-3.4 3.4-3.4h26.266c1.875 0 3.4 1.525 3.4 3.4v16.8c0 .553-.448 1-1 1s-1-.447-1-1v-16.8c0-.772-.628-1.4-1.4-1.4h-26.266c-.772 0-1.4.628-1.4 1.4v16.8c0 .771.628 1.399 1.4 1.399h2.4c.552 0 1 .447 1 1v4.974l6.436-5.721c.183-.163.419-.253.665-.253h4.034c.552 0 1 .447 1 1s-.448 1-1 1h-3.655l-7.816 6.947c-.187.167-.424.254-.664.254z"/></g></g><g id="LWPOLYLINE_1_"><g><path d="m51.2 57c-.24 0-.478-.087-.665-.253l-7.815-6.947h-15.386c-1.875 0-3.4-1.525-3.4-3.399v-16.801c0-1.874 1.525-3.399 3.4-3.399h26.266c1.875 0 3.4 1.525 3.4 3.399v16.8c0 1.874-1.525 3.399-3.4 3.399h-1.4v6.201c0 .394-.231.751-.59.912-.131.06-.271.088-.41.088zm-23.866-28.8c-.772 0-1.4.628-1.4 1.399v16.801c0 .771.628 1.399 1.4 1.399h15.766c.245 0 .481.09.665.253l6.436 5.721v-4.973c0-.553.448-1 1-1h2.4c.772 0 1.4-.628 1.4-1.399v-16.801c0-.771-.628-1.399-1.4-1.399h-26.267z"/></g></g><path d="m47.22 37.69c.43.34.5.97.15 1.399-.34.44-.97.51-1.4.16l-.5-.4v4.86h-4v-2h2v-4.46l-3-2.4-3 2.4v4.46h2v2h-4v-4.86l-.5.4c-.43.35-1.06.28-1.41-.16-.34-.43-.27-1.06.16-1.399l6.75-5.4z"/><path d="m18.53 18.65v4.3c0 .55-.44 1-1 1-.55 0-1-.45-1-1v-4.3c0-.551.45-1 1-1 .56 0 1 .45 1 1z"/><path d="m22.53 16.65v6.3c0 .55-.44 1-1 1-.55 0-1-.45-1-1v-6.3c0-.551.45-1 1-1 .56 0 1 .45 1 1z"/><path d="m26.53 14.65v8.3c0 .55-.44 1-1 1-.55 0-1-.45-1-1v-8.3c0-.551.45-1 1-1 .56 0 1 .45 1 1z"/><path d="m30.53 12.65v10.3c0 .55-.44 1-1 1-.55 0-1-.45-1-1v-10.3c0-.551.45-1 1-1 .56 0 1 .45 1 1z"/></g></svg>