<?xml version="1.0" encoding="utf-8"?>
<!-- Generator: Adobe Illustrator 24.0.1, SVG Export Plug-In . SVG Version: 6.00 Build 0)  -->
<svg version="1.1" id="Vrstva_1" xmlns="http://www.w3.org/2000/svg" xmlns:xlink="http://www.w3.org/1999/xlink" x="0px" y="0px"
	 viewBox="0 0 90.7 76.7" style="enable-background:new 0 0 90.7 76.7;" xml:space="preserve">
<style type="text/css">
	.st0{clip-path:url(#SVGID_2_);fill:#FFFFFF;}
</style>
<g>
	<defs>
		<rect id="SVGID_1_" y="0" width="90.7" height="76.7"/>
	</defs>
	<clipPath id="SVGID_2_">
		<use xlink:href="#SVGID_1_"  style="overflow:visible;"/>
	</clipPath>
	<path class="st0" d="M0.9,76.7c-0.5,0-0.9-0.4-0.9-0.9V26.9c0-0.2,0.1-0.5,0.3-0.6L26,0.6c0.4-0.4,0.9-0.4,1.3,0l27,27
		c0.4,0.4,0.4,0.9,0,1.3c-0.4,0.4-0.9,0.4-1.3,0L26.6,2.5L1.8,27.3v48.4C1.8,76.3,1.4,76.7,0.9,76.7"/>
	<path class="st0" d="M89.8,65.9h-26c-0.5,0-0.9-0.4-0.9-0.9s0.4-0.9,0.9-0.9h25.1V27.9L63.1,2.2L46.2,19.1c-0.4,0.4-0.9,0.4-1.3,0
		c-0.4-0.4-0.4-0.9,0-1.3L62.5,0.3c0.4-0.4,0.9-0.4,1.3,0l26.7,26.7c0.2,0.2,0.3,0.4,0.3,0.6V65C90.7,65.5,90.3,65.9,89.8,65.9"/>
	<path class="st0" d="M8.1,57.1h3.1c2.3,0,3.6,1.3,3.6,2.8c0,1-0.5,1.9-1.5,2.4l2,3.7H13l-1.8-3.2h-1v3.2H8.1V57.1z M10.2,58.8V61h1
		c1,0,1.5-0.3,1.5-1.1c0-0.7-0.5-1.1-1.5-1.1H10.2z"/>
	<path class="st0" d="M22.4,56.9c2.5,0,4.6,2,4.6,4.6c0,2.6-2,4.6-4.6,4.6c-2.6,0-4.6-2-4.6-4.6C17.8,58.9,19.8,56.9,22.4,56.9
		 M22.4,64.3c1.6,0,2.5-1.2,2.5-2.8c0-1.6-0.9-2.8-2.5-2.8c-1.5,0-2.5,1.2-2.5,2.8C19.9,63.2,20.8,64.3,22.4,64.3"/>
	<path class="st0" d="M30.1,57.1H33c2.3,0,3.6,1.1,3.6,2.4c0,0.8-0.5,1.5-1.2,1.8v0.1c1.1,0.3,1.7,1.1,1.7,2.1
		c0,1.3-1.3,2.4-3.6,2.4h-3.3V57.1z M32.3,58.8v1.9h1c0.8,0,1.2-0.4,1.2-1c0-0.4-0.4-0.9-1.3-0.9H32.3z M32.3,62.2v2h1.4
		c0.8,0,1.3-0.3,1.3-0.9c0-0.7-0.4-1.1-1.2-1.1H32.3z"/>
	<path class="st0" d="M45.4,64.2h-3l-0.6,1.7h-2.2l3.3-8.9h2.1l3.3,8.9h-2.2L45.4,64.2z M42.9,62.6h1.9l-0.6-2l-0.3-1.1h-0.1
		l-0.2,1.1L42.9,62.6z"/>
	<path class="st0" d="M51.1,63.8c0.7,0.2,1.3,0.4,2.1,0.4c0.6,0,1.2-0.2,1.2-0.8c0-0.5-0.4-0.7-1.5-1.2c-1.4-0.6-2.2-1.4-2.2-2.6
		c0-1.8,1.6-2.7,3.3-2.7c0.9,0,1.7,0.2,2.5,0.5l-0.4,1.7c-0.7-0.2-1.3-0.4-2.1-0.4c-0.6,0-1,0.3-1,0.7c0,0.5,0.4,0.8,1.4,1.2
		c1.5,0.6,2.3,1.4,2.3,2.6c0,1.9-1.7,2.8-3.4,2.8c-0.9,0-1.7-0.2-2.5-0.5L51.1,63.8z"/>
	<path class="st0" d="M8,70.4h1.7c1.8,0,3.1,1.3,3.1,3.1c0,1.8-1.3,3.1-3.1,3.1H8V70.4z M8.7,71v5h1c1.4,0,2.4-1.1,2.4-2.5
		c0-1.3-1-2.5-2.4-2.5H8.7z"/>
	<polygon class="st0" points="16.1,76.6 16.1,70.4 19.8,70.4 19.8,71 16.8,71 16.8,73.1 19.6,73.1 19.6,73.7 16.8,73.7 16.8,76 
		19.8,76 19.8,76.6 	"/>
	<polygon class="st0" points="25.1,75.6 25.1,75.9 25.2,75.9 25.3,75.6 27.1,70.4 27.9,70.4 25.5,76.6 24.8,76.6 22.5,70.4 
		23.3,70.4 	"/>
	<polygon class="st0" points="30.9,76.6 30.9,70.4 34.6,70.4 34.6,71 31.6,71 31.6,73.1 34.5,73.1 34.5,73.7 31.6,73.7 31.6,76 
		34.6,76 34.6,76.6 	"/>
	<polygon class="st0" points="37.9,70.4 38.6,70.4 38.6,76 41.4,76 41.4,76.6 37.9,76.6 	"/>
	<path class="st0" d="M47,70.3c1.7,0,3.1,1.4,3.1,3.2s-1.4,3.2-3.1,3.2c-1.7,0-3.1-1.4-3.1-3.2S45.2,70.3,47,70.3 M47,76.1
		c1.3,0,2.4-1.1,2.4-2.6c0-1.4-1.1-2.6-2.4-2.6c-1.3,0-2.4,1.2-2.4,2.6C44.6,75,45.6,76.1,47,76.1"/>
	<path class="st0" d="M53.4,70.4h2.1c1.5,0,2.3,0.9,2.3,1.9c0,1-0.8,1.9-2.3,1.9h-1.4v2.5h-0.7V70.4z M54.1,71v2.5h1.4
		c1.1,0,1.6-0.6,1.6-1.2c0-0.7-0.5-1.2-1.6-1.2H54.1z"/>
	<polygon class="st0" points="67,71.5 66.9,71.5 66.9,71.8 64.6,76.6 64.1,76.6 61.8,71.8 61.8,71.4 61.7,71.5 61.7,76.6 61,76.6 
		61,70.4 61.9,70.4 64.2,75.5 64.3,75.8 64.4,75.8 64.5,75.5 66.8,70.4 67.7,70.4 67.7,76.6 67,76.6 	"/>
	<polygon class="st0" points="71.3,76.6 71.3,70.4 75,70.4 75,71 72,71 72,73.1 74.9,73.1 74.9,73.7 72,73.7 72,76 75,76 75,76.6 	
		"/>
	<polygon class="st0" points="79.4,72 79.1,71.5 79,71.5 79,76.6 78.3,76.6 78.3,70.4 79,70.4 82.4,75.1 82.6,75.5 82.7,75.5 
		82.7,70.4 83.4,70.4 83.4,76.6 82.7,76.6 	"/>
	<polygon class="st0" points="89,71 89,76.6 88.3,76.6 88.3,71 86.5,71 86.5,70.4 90.7,70.4 90.7,71 	"/>
</g>
</svg>
