<?xml version="1.0" encoding="UTF-8"?>
<svg width="80px" height="68px" viewBox="0 0 80 68" version="1.1" xmlns="http://www.w3.org/2000/svg" xmlns:xlink="http://www.w3.org/1999/xlink">
    <title>RD logo</title>
    <g id="Page-1" stroke="none" stroke-width="1" fill="none" fill-rule="evenodd">
        <g id="RD-logo" transform="translate(0.000000, -0.000000)" fill="#000000" fill-rule="nonzero">
            <path d="M0.802271805,67.5865314 C0.35959432,67.5865314 0,67.2269371 0,66.7842596 L0,23.7419878 C0,23.5290872 0.0843813387,23.3252738 0.234969574,23.1746856 L22.8959026,0.51505071 C23.2087627,0.202190669 23.7176471,0.202190669 24.0305071,0.51505071 L47.8091684,24.293712 C48.1233266,24.606572 48.1233266,25.1154564 47.8091684,25.4283164 C47.4963083,25.7411765 46.9874239,25.7411765 46.6745639,25.4283164 L23.4619067,2.21565923 L1.60324544,24.0730223 L1.60324544,66.7829615 C1.60324544,67.2256389 1.24365112,67.5852333 0.800973631,67.5852333 L0.802271805,67.5865314 Z" id="Path"></path>
            <path d="M79.1341176,58.1150507 L56.1940771,58.1150507 C55.7513996,58.1150507 55.3918053,57.7554564 55.3918053,57.3127789 C55.3918053,56.8701014 55.7513996,56.5105071 56.1940771,56.5105071 L78.3318458,56.5105071 L78.3318458,24.6338337 L55.6345639,1.93655172 L40.7263286,16.844787 C40.4134686,17.1576471 39.9045842,17.1576471 39.5917241,16.844787 C39.2775659,16.531927 39.2775659,16.0230426 39.5917241,15.7101826 L55.0672617,0.23464503 C55.3801217,-0.0782150101 55.8890061,-0.0782150101 56.2018661,0.23464503 L79.7014199,23.7341988 C79.8520081,23.884787 79.9363895,24.0886004 79.9363895,24.301501 L79.9363895,57.3127789 C79.9363895,57.7554564 79.5767951,58.1150507 79.1341176,58.1150507 L79.1341176,58.1150507 Z" id="Path"></path>
            <g id="Group" transform="translate(7.058174, 50.197485)">
                <path d="M0.0610141988,0.111643002 L2.80275862,0.111643002 C4.83959432,0.111643002 5.96900609,1.25273834 5.96900609,2.59634888 C5.96900609,3.49208925 5.49906694,4.25281947 4.63707911,4.68900609 L6.41687627,7.94612576 L4.36965517,7.94612576 L2.82482759,5.08105477 L1.94077079,5.08105477 L1.94077079,7.94612576 L0.0610141988,7.94612576 L0.0610141988,0.112941176 L0.0610141988,0.111643002 Z M1.94077079,1.63310345 L1.94077079,3.55829615 L2.80275862,3.55829615 C3.67513185,3.55829615 4.08924949,3.27918864 4.08924949,2.59634888 C4.08924949,1.91350913 3.67513185,1.63440162 2.80275862,1.63440162 L1.94077079,1.63440162 L1.94077079,1.63310345 Z" id="Shape"></path>
                <path d="M12.6831643,0 C14.853712,0 16.7347667,1.73436105 16.7347667,4.02823529 C16.7347667,6.32210953 14.9666531,8.05647059 12.6831643,8.05647059 C10.3996755,8.05647059 8.64324544,6.32210953 8.64324544,4.02823529 C8.64324544,1.73436105 10.411359,0 12.6831643,0 Z M12.6831643,6.53501014 C14.0592292,6.53501014 14.853712,5.50555781 14.853712,4.02823529 C14.853712,2.55091278 14.0592292,1.52146045 12.6831643,1.52146045 C11.3070994,1.52146045 10.523002,2.60673428 10.523002,4.02823529 C10.523002,5.44973631 11.3174848,6.53501014 12.6831643,6.53501014 L12.6831643,6.53501014 Z" id="Shape"></path>
                <path d="M19.5206491,0.111643002 L22.0274239,0.111643002 C24.0642596,0.111643002 25.1949696,1.07359026 25.1949696,2.23805274 C25.1949696,2.95464503 24.7925355,3.58036511 24.1434483,3.86077079 L24.1434483,3.92827586 C25.0833266,4.16324544 25.6428398,4.93565923 25.6428398,5.81971602 C25.6428398,6.99456389 24.5121298,7.94612576 22.4765923,7.94612576 L19.5219473,7.94612576 L19.5219473,0.112941176 L19.5206491,0.111643002 Z M21.4004057,1.63310345 L21.4004057,3.26750507 L22.2623935,3.26750507 C22.9673022,3.26750507 23.3139148,2.94296146 23.3139148,2.39513185 C23.3139148,2.00308316 22.9335497,1.63440162 22.1494523,1.63440162 L21.4004057,1.63440162 L21.4004057,1.63310345 Z M21.4004057,4.66563895 L21.4004057,6.42206897 L22.5973225,6.42206897 C23.3139148,6.42206897 23.761785,6.15334686 23.761785,5.62758621 C23.761785,5.03432049 23.3814199,4.66563895 22.7102637,4.66563895 L21.4017039,4.66563895 L21.4004057,4.66563895 Z" id="Shape"></path>
                <path d="M32.9385801,6.44673428 L30.2747262,6.44673428 L29.7710345,7.94612576 L27.8237728,7.94612576 L30.6992292,0.112941176 L32.5231643,0.112941176 L35.3986207,7.94612576 L33.4409736,7.94612576 L32.9372819,6.44673428 L32.9385801,6.44673428 Z M30.7680325,4.98109533 L32.446572,4.98109533 L31.8753753,3.24673428 L31.6404057,2.23935091 L31.5729006,2.23935091 L31.36,3.22466531 L30.7667343,4.98109533 L30.7680325,4.98109533 Z" id="Shape"></path>
                <path d="M38.0300203,6.08843813 C38.623286,6.26758621 39.1607302,6.41298174 39.8760243,6.41298174 C40.401785,6.41298174 40.9054767,6.22344828 40.9054767,5.74182556 C40.9054767,5.26020284 40.5809331,5.09273834 39.5969168,4.69030426 C38.3545639,4.16454361 37.6275862,3.48170385 37.6275862,2.40811359 C37.6275862,0.785395538 39.0374037,0.00259634888 40.5484787,0.00259634888 C41.3650304,0.00259634888 42.0478702,0.192129817 42.7423935,0.484219067 L42.3957809,1.98361055 C41.7908316,1.79407708 41.265071,1.64738337 40.5497769,1.64738337 C40.0577688,1.64738337 39.6319675,1.87066937 39.6319675,2.28478702 C39.6319675,2.69890467 40.0006491,2.97801217 40.8860041,3.33630832 C42.1724949,3.86206897 42.9111562,4.57866126 42.9111562,5.58604462 C42.9111562,7.28665314 41.4338337,8.05906694 39.8786207,8.05906694 C39.1178905,8.05906694 38.3792292,7.86953347 37.6963895,7.57744422 L38.0326166,6.08973631 L38.0300203,6.08843813 Z" id="Path"></path>
                <path d="M-3.68963368e-15,11.8627181 L1.47991886,11.8627181 C3.08576065,11.8627181 4.22036511,13.045355 4.22036511,14.6031643 C4.22036511,16.1609736 3.08446247,17.3449087 1.47991886,17.3449087 L-3.68963368e-15,17.3449087 L-3.68963368e-15,11.8627181 L-3.68963368e-15,11.8627181 Z M0.625720081,12.4105477 L0.625720081,16.7957809 L1.47991886,16.7957809 C2.7326572,16.7957809 3.59464503,15.8481136 3.59464503,14.6031643 C3.59464503,13.4361055 2.7326572,12.4105477 1.47991886,12.4105477 L0.625720081,12.4105477 Z" id="Shape"></path>
                <polygon id="Path" points="7.12048682 17.3449087 7.12048682 11.8627181 10.3866937 11.8627181 10.3866937 12.4105477 7.74750507 12.4105477 7.74750507 14.2669371 10.262069 14.2669371 10.262069 14.8147667 7.74750507 14.8147667 7.74750507 16.7957809 10.3866937 16.7957809 10.3866937 17.3436105 7.12048682 17.3436105"></polygon>
                <polygon id="Path" points="15.054929 16.4141176 15.1094523 16.7036105 15.1561866 16.7036105 15.2107099 16.4141176 16.8009736 11.8640162 17.5214604 11.8640162 15.4612576 17.3462069 14.7952941 17.3462069 12.7350913 11.8640162 13.4555781 11.8640162 15.0536308 16.4141176"></polygon>
                <polygon id="Path" points="20.1853144 17.3449087 20.1853144 11.8627181 23.4515213 11.8627181 23.4515213 12.4105477 20.8123327 12.4105477 20.8123327 14.2669371 23.3268966 14.2669371 23.3268966 14.8147667 20.8123327 14.8147667 20.8123327 16.7957809 23.4515213 16.7957809 23.4515213 17.3436105 20.1853144 17.3436105"></polygon>
                <polygon id="Path" points="26.3503448 11.8627181 26.9760649 11.8627181 26.9760649 16.7970791 29.4425963 16.7970791 29.4425963 17.3449087 26.3490467 17.3449087 26.3490467 11.8627181"></polygon>
                <path d="M34.3393103,11.7848276 C35.8270183,11.7848276 37.0875456,12.9986207 37.0875456,14.6044625 C37.0875456,16.2103043 35.8737525,17.4240974 34.3393103,17.4240974 C32.8048682,17.4240974 31.5975659,16.2103043 31.5975659,14.6044625 C31.5975659,12.9986207 32.811359,11.7848276 34.3393103,11.7848276 Z M34.3393103,16.8749696 C35.483002,16.8749696 36.4618256,15.896146 36.4618256,14.6031643 C36.4618256,13.3971602 35.5297363,12.3326572 34.3393103,12.3326572 C33.1488844,12.3326572 32.2245842,13.3971602 32.2245842,14.6031643 C32.2245842,15.896146 33.1566734,16.8749696 34.3393103,16.8749696 Z" id="Shape"></path>
                <path d="M39.9876673,11.8627181 L41.8596349,11.8627181 C43.1824746,11.8627181 43.8964706,12.6143611 43.8964706,13.5075051 C43.8964706,14.4006491 43.1837728,15.1522921 41.8596349,15.1522921 L40.6146856,15.1522921 L40.6146856,17.3449087 L39.9889655,17.3449087 L39.9889655,11.8627181 L39.9876673,11.8627181 Z M40.6133874,12.4105477 L40.6133874,14.6031643 L41.8583367,14.6031643 C42.8215822,14.6031643 43.2681542,14.1176471 43.2681542,13.5075051 C43.2681542,12.8973631 42.8215822,12.4105477 41.8583367,12.4105477 L40.6133874,12.4105477 L40.6133874,12.4105477 Z" id="Shape"></path>
                <polygon id="Path" points="51.9866937 12.8739959 51.9399594 12.8662069 51.8854361 13.1011765 49.927789 17.3462069 49.4189047 17.3462069 47.4612576 13.1011765 47.3911562 12.7961055 47.3444219 12.8038945 47.3444219 17.3462069 46.7187018 17.3462069 46.7187018 11.8640162 47.5326572 11.8640162 49.5617039 16.3595943 49.6473834 16.6568763 49.6941176 16.6568763 49.7953753 16.3518053 51.8153347 11.8640162 52.613712 11.8640162 52.613712 17.3462069 51.9866937 17.3462069 51.9866937 12.8739959"></polygon>
                <polygon id="Path" points="55.8266937 17.3449087 55.8266937 11.8627181 59.0929006 11.8627181 59.0929006 12.4105477 56.453712 12.4105477 56.453712 14.2669371 58.9682759 14.2669371 58.9682759 14.8147667 56.453712 14.8147667 56.453712 16.7957809 59.0929006 16.7957809 59.0929006 17.3436105 55.8266937 17.3436105"></polygon>
                <polygon id="Path" points="62.9303043 13.2959026 62.6641785 12.8259635 62.6174442 12.8415416 62.6174442 17.3449087 61.9917241 17.3449087 61.9917241 11.8627181 62.6174442 11.8627181 65.6019473 15.9974037 65.8057606 16.3816633 65.8524949 16.3738742 65.8524949 11.8627181 66.4795132 11.8627181 66.4795132 17.3449087 65.8524949 17.3449087 62.9316024 13.2959026"></polygon>
                <polygon id="Path" points="71.3982961 12.4118458 71.3982961 17.3462069 70.7725761 17.3462069 70.7725761 12.4118458 69.1823124 12.4118458 69.1823124 11.8640162 72.9418256 11.8640162 72.9418256 12.4118458 71.3995943 12.4118458"></polygon>
            </g>
        </g>
    </g>
</svg>