<?xml version="1.0" encoding="UTF-8"?>
<svg width="17px" height="16px" viewBox="0 0 17 16" version="1.1" xmlns="http://www.w3.org/2000/svg" xmlns:xlink="http://www.w3.org/1999/xlink">
    <title>iconmonstr-info-12</title>
    <g id="Page-1" stroke="none" stroke-width="1" fill="none" fill-rule="evenodd" opacity="0.24">
        <g id="Lindt---Cookies" transform="translate(-291.000000, -583.000000)" fill="#000000">
            <g id="Cookies" transform="translate(240.000000, 269.000000)">
                <g id="iconmonstr-info-12" transform="translate(51.000000, 314.000000)">
                    <path d="M17,12.3492569 L7.79166667,12.3492569 L2.83333333,16 L2.83333333,12.3492569 L0,12.3492569 L0,0 L17,0 L17,12.3492569 Z M15.5833333,1.45447934 L1.41666667,1.45447934 L1.41666667,10.8947775 L4.25,10.8947775 L4.25,13.1674015 L7.33620833,10.8947775 L15.5833333,10.8947775 L15.5833333,1.45447934 Z M9.20833333,5.81864461 L9.20833333,9.45484296 L7.79166667,9.45484296 L7.79166667,5.81864461 L9.20833333,5.81864461 Z M8.5,4.7277851 C8.98875,4.7277851 9.38541667,4.32053088 9.38541667,3.81873551 C9.38541667,3.31694014 8.98875,2.90968592 8.5,2.90968592 C8.01125,2.90968592 7.61458333,3.31694014 7.61458333,3.81873551 C7.61458333,4.32053088 8.01125,4.7277851 8.5,4.7277851 Z" id="Shape"></path>
                </g>
            </g>
        </g>
    </g>
</svg>